<svg xmlns="http://www.w3.org/2000/svg" viewBox="0 0 1200 820" role="img" aria-labelledby="title desc">
  <title id="title">Telemetry time series</title>
  <desc id="desc">Generated from docs/monitoring/history.json for repo-context-hooks. Shows score 90, baseline 20, uplift 70, 32 hook events, lifecycle coverage 100 percent, previous period 2026-04-24, latest period 2026-04-25, daily event bars, score trend, and event counts.</desc>
  <defs>
    <linearGradient id="page" x1="0" y1="0" x2="1" y2="1">
      <stop offset="0" stop-color="#fff8e8"/>
      <stop offset="0.62" stop-color="#efd5a4"/>
      <stop offset="1" stop-color="#d7b77e"/>
    </linearGradient>
    <linearGradient id="line" x1="0" y1="0" x2="1" y2="0">
      <stop offset="0" stop-color="#2f6957"/>
      <stop offset="1" stop-color="#b54720"/>
    </linearGradient>
  </defs>
  <rect x="32" y="32" width="1136" height="756" rx="36" fill="url(#page)"/>
  <rect x="58" y="58" width="1084" height="704" rx="28" fill="#fff9ea" opacity="0.78"/>
  <text x="80" y="104" fill="#17120b" font-family="Georgia, serif" font-size="42" font-weight="700">Telemetry time series</text>
  <text x="80" y="138" fill="#6f5632" font-family="Segoe UI, sans-serif" font-size="18">Generated from docs/monitoring/history.json with local telemetry snapshots</text>
  <text x="80" y="166" fill="#6f5632" font-family="Segoe UI, sans-serif" font-size="18">Repo: repo-context-hooks</text>

  <rect x="80" y="192" width="480" height="154" rx="24" fill="#17120b"/>
  <text x="108" y="228" fill="#e5a92f" font-family="Segoe UI, sans-serif" font-size="15" font-weight="800">MODEL/SESSION ONLY</text>
  <text x="108" y="256" fill="#f6efe0" font-family="Segoe UI, sans-serif" font-size="17">Model/session only</text>
  <rect x="108" y="280" width="328" height="18" rx="9" fill="#354250"/>
  <rect x="108" y="280" width="66" height="18" rx="9" fill="#d2852f"/>
  <text x="454" y="297" fill="#f6efe0" font-family="Georgia, serif" font-size="28" font-weight="700">20</text>
  <text x="108" y="324" fill="#d6c29a" font-family="Segoe UI, sans-serif" font-size="15">README-only context before handoff.</text>

  <rect x="584" y="192" width="536" height="154" rx="24" fill="#f3dfb8" stroke="#d0ad72" stroke-width="2"/>
  <text x="612" y="228" fill="#7b3a21" font-family="Segoe UI, sans-serif" font-size="15" font-weight="800">REPO CONTINUITY</text>
  <text x="612" y="256" fill="#17120b" font-family="Segoe UI, sans-serif" font-size="17">Repo continuity: contracts + hooks</text>
  <rect x="612" y="280" width="328" height="18" rx="9" fill="#dac18b"/>
  <rect x="612" y="280" width="295" height="18" rx="9" fill="url(#line)"/>
  <text x="960" y="297" fill="#17120b" font-family="Georgia, serif" font-size="28" font-weight="700">90</text>
  <text x="612" y="324" fill="#4e3a23" font-family="Segoe UI, sans-serif" font-size="15">Adds +70 with 32 hook events.</text>

  <rect x="80" y="368" width="652" height="340" rx="24" fill="#fff3d4" stroke="#d0ad72" stroke-width="2"/>
  <text x="108" y="406" fill="#17120b" font-family="Segoe UI, sans-serif" font-size="20" font-weight="800">Previous vs latest telemetry</text>
  <text x="108" y="432" fill="#6f5632" font-family="Segoe UI, sans-serif" font-size="16">Previous: 2026-04-24 (30 events, score 90)</text>
  <text x="108" y="456" fill="#6f5632" font-family="Segoe UI, sans-serif" font-size="16">Latest: 2026-04-25 (2 events, score 90)</text>
  <rect x="104" y="468" width="604" height="126" rx="20" fill="#f8e9c8" stroke="#d0ad72" stroke-width="2"/>
  <line x1="104" y1="594" x2="708" y2="594" stroke="#9a7a4d" stroke-width="2"/>
  <line x1="104" y1="578" x2="708" y2="578" stroke="#dec18d" stroke-width="2" stroke-dasharray="10 10"/>
  <text x="112" y="498" fill="#6f5632" font-family="Segoe UI, sans-serif" font-size="15">Daily hook events as bars</text>
  <text x="112" y="522" fill="#2f6957" font-family="Segoe UI, sans-serif" font-size="15" font-weight="800">Score trend as line</text>
  <rect x="133.0" y="490" width="70" height="104" rx="10" fill="#d2852f"/><rect x="609.0" y="587" width="70" height="7" rx="10" fill="#d2852f"/>
  <polyline points="168.0,481 644.0,481" fill="none" stroke="url(#line)" stroke-width="7" stroke-linecap="round" stroke-linejoin="round"/>
  <circle cx="168.0" cy="481" r="8" fill="#f6efe0" stroke="#2f6957" stroke-width="5"/>
<text x="114.0" y="628" fill="#4e3a23" font-family="Segoe UI, sans-serif" font-size="16">2026-04-24</text>
<text x="124.0" y="652" fill="#17120b" font-family="Segoe UI, sans-serif" font-size="17" font-weight="800">30 events</text><circle cx="644.0" cy="481" r="8" fill="#f6efe0" stroke="#2f6957" stroke-width="5"/>
<text x="590.0" y="628" fill="#4e3a23" font-family="Segoe UI, sans-serif" font-size="16">2026-04-25</text>
<text x="600.0" y="652" fill="#17120b" font-family="Segoe UI, sans-serif" font-size="17" font-weight="800">2 events</text>

  <rect x="764" y="368" width="356" height="364" rx="24" fill="#17120b"/>
  <text x="796" y="406" fill="#e5a92f" font-family="Segoe UI, sans-serif" font-size="16" font-weight="800">Agent/model comparison</text>
  <text x="796" y="430" fill="#d6c29a" font-family="Segoe UI, sans-serif" font-size="14">By agent + model</text>
  <text x="982" y="430" fill="#d6c29a" font-family="Segoe UI, sans-serif" font-size="12">Agent sessions</text>
  <text x="796" y="456" fill="#f6efe0" font-family="Segoe UI, sans-serif" font-size="15">claude / unknown model</text>
<rect x="796" y="470" width="126" height="16" rx="8" fill="#2f6957"/>
<text x="936" y="484" fill="#f6efe0" font-family="Segoe UI, sans-serif" font-size="15" font-weight="800">32 ev</text>
<text x="796" y="506" fill="#d6c29a" font-family="Segoe UI, sans-serif" font-size="13">score 90 / uplift +70</text>
<text x="990" y="506" fill="#d6c29a" font-family="Segoe UI, sans-serif" font-size="13">1 session</text>
  <text x="796" y="610" fill="#e5a92f" font-family="Segoe UI, sans-serif" font-size="15" font-weight="800">EVENT MIX FROM JSON</text>
  <text x="796" y="638" fill="#f6efe0" font-family="Segoe UI, sans-serif" font-size="14">session-start</text>
<rect x="978" y="624" width="76" height="16" rx="8" fill="#e5a92f"/>
<text x="1070" y="638" fill="#f6efe0" font-family="Segoe UI, sans-serif" font-size="15" font-weight="800">28</text><text x="796" y="666" fill="#f6efe0" font-family="Segoe UI, sans-serif" font-size="14">post-compact</text>
<rect x="978" y="652" width="8" height="16" rx="8" fill="#e5a92f"/>
<text x="1070" y="666" fill="#f6efe0" font-family="Segoe UI, sans-serif" font-size="15" font-weight="800">1</text><text x="796" y="694" fill="#f6efe0" font-family="Segoe UI, sans-serif" font-size="14">pre-compact</text>
<rect x="978" y="680" width="8" height="16" rx="8" fill="#e5a92f"/>
<text x="1070" y="694" fill="#f6efe0" font-family="Segoe UI, sans-serif" font-size="15" font-weight="800">1</text>
  <text x="796" y="718" fill="#d6c29a" font-family="Segoe UI, sans-serif" font-size="16">Lifecycle coverage: 100%</text>

  <rect x="80" y="746" width="1040" height="42" rx="18" fill="#f6e3bb"/>
  <text x="108" y="772" fill="#5d4327" font-family="Segoe UI, sans-serif" font-size="14" font-weight="800">Metric sources</text>
  <text x="250" y="772" fill="#5d4327" font-family="Segoe UI, sans-serif" font-size="14">score / baseline / uplift</text>
  <text x="486" y="772" fill="#5d4327" font-family="Segoe UI, sans-serif" font-size="14">time_series / event_counts</text>
  <text x="760" y="772" fill="#5d4327" font-family="Segoe UI, sans-serif" font-size="14">agent_comparison / agent_sessions</text>
  <text x="1044" y="772" fill="#5d4327" font-family="Segoe UI, sans-serif" font-size="14">lifecycle</text>
</svg>
